<svg width="42" height="42" viewBox="0 0 42 42" fill="none" xmlns="http://www.w3.org/2000/svg">
<mask id="path-1-inside-1_1_10" fill="white">
<path fill-rule="evenodd" clip-rule="evenodd" d="M16.0066 8.23771L9.27461 3.57573C7.02813 5.09044 5.09044 7.02813 3.57573 9.27461L8.23771 16.0066L0.299003 17.4488C0.102398 18.6032 0 19.7896 0 21C0 22.576 0.173599 24.1114 0.502719 25.5882L8.23771 26.9934L3.92272 33.2243C5.55465 35.5001 7.6302 37.4361 10.0229 38.9061L16.0066 34.7623L17.2612 41.6682C18.4745 41.8862 19.724 42 21 42C22.6435 42 24.2429 41.8112 25.7777 41.4541L26.9934 34.7623L32.4989 38.5749C34.9176 36.9892 36.9892 34.9176 38.5749 32.4989L34.7623 26.9934L41.4541 25.7777C41.8112 24.2429 42 22.6435 42 21C42 19.724 41.8862 18.4745 41.6682 17.2612L34.7623 16.0066L38.9061 10.0229C37.4361 7.6302 35.5001 5.55465 33.2243 3.92272L26.9934 8.23771L25.5882 0.502719C24.1114 0.173599 22.576 0 21 0C19.7896 0 18.6032 0.102398 17.4488 0.299003L16.0066 8.23771ZM21 26C23.7614 26 26 23.7614 26 21C26 18.2386 23.7614 16 21 16C18.2386 16 16 18.2386 16 21C16 23.7614 18.2386 26 21 26Z"/>
</mask>
<path fill-rule="evenodd" clip-rule="evenodd" d="M16.0066 8.23771L9.27461 3.57573C7.02813 5.09044 5.09044 7.02813 3.57573 9.27461L8.23771 16.0066L0.299003 17.4488C0.102398 18.6032 0 19.7896 0 21C0 22.576 0.173599 24.1114 0.502719 25.5882L8.23771 26.9934L3.92272 33.2243C5.55465 35.5001 7.6302 37.4361 10.0229 38.9061L16.0066 34.7623L17.2612 41.6682C18.4745 41.8862 19.724 42 21 42C22.6435 42 24.2429 41.8112 25.7777 41.4541L26.9934 34.7623L32.4989 38.5749C34.9176 36.9892 36.9892 34.9176 38.5749 32.4989L34.7623 26.9934L41.4541 25.7777C41.8112 24.2429 42 22.6435 42 21C42 19.724 41.8862 18.4745 41.6682 17.2612L34.7623 16.0066L38.9061 10.0229C37.4361 7.6302 35.5001 5.55465 33.2243 3.92272L26.9934 8.23771L25.5882 0.502719C24.1114 0.173599 22.576 0 21 0C19.7896 0 18.6032 0.102398 17.4488 0.299003L16.0066 8.23771ZM21 26C23.7614 26 26 23.7614 26 21C26 18.2386 23.7614 16 21 16C18.2386 16 16 18.2386 16 21C16 23.7614 18.2386 26 21 26Z" fill="#6C3A0C"/>
<path d="M9.27461 3.57573L9.84394 2.75362L9.28215 2.36457L8.71556 2.7466L9.27461 3.57573ZM16.0066 8.23771L15.4373 9.05982L16.7131 9.94335L16.9905 8.41646L16.0066 8.23771ZM3.57573 9.27461L2.7466 8.71556L2.36457 9.28215L2.75362 9.84394L3.57573 9.27461ZM8.23771 16.0066L8.41646 16.9905L9.94335 16.7131L9.05982 15.4373L8.23771 16.0066ZM0.299003 17.4488L0.120254 16.4649L-0.569155 16.5902L-0.686801 17.2809L0.299003 17.4488ZM0.502719 25.5882L-0.473336 25.8057L-0.328979 26.4534L0.32397 26.5721L0.502719 25.5882ZM8.23771 26.9934L9.05982 27.5627L9.94335 26.2869L8.41646 26.0095L8.23771 26.9934ZM3.92272 33.2243L3.10061 32.655L2.69939 33.2344L3.11007 33.8071L3.92272 33.2243ZM10.0229 38.9061L9.49943 39.7581L10.0556 40.0998L10.5922 39.7282L10.0229 38.9061ZM16.0066 34.7623L16.9905 34.5835L16.7131 33.0567L15.4373 33.9402L16.0066 34.7623ZM17.2612 41.6682L16.2773 41.8469L16.4013 42.5297L17.0843 42.6524L17.2612 41.6682ZM25.7777 41.4541L26.0043 42.4281L26.6442 42.2792L26.7616 41.6329L25.7777 41.4541ZM26.9934 34.7623L27.5627 33.9402L26.2869 33.0567L26.0095 34.5835L26.9934 34.7623ZM32.4989 38.5749L31.9295 39.397L32.4836 39.7807L33.0471 39.4112L32.4989 38.5749ZM38.5749 32.4989L39.4112 33.0471L39.7807 32.4836L39.397 31.9295L38.5749 32.4989ZM34.7623 26.9934L34.5835 26.0095L33.0567 26.2869L33.9402 27.5627L34.7623 26.9934ZM41.4541 25.7777L41.6329 26.7616L42.2792 26.6442L42.4281 26.0043L41.4541 25.7777ZM41.6682 17.2612L42.6524 17.0843L42.5297 16.4013L41.8469 16.2773L41.6682 17.2612ZM34.7623 16.0066L33.9402 15.4373L33.0567 16.7131L34.5835 16.9905L34.7623 16.0066ZM38.9061 10.0229L39.7282 10.5922L40.0998 10.0556L39.7581 9.49943L38.9061 10.0229ZM33.2243 3.92272L33.8071 3.11007L33.2344 2.69939L32.655 3.10061L33.2243 3.92272ZM26.9934 8.23771L26.0095 8.41646L26.2869 9.94335L27.5627 9.05982L26.9934 8.23771ZM25.5882 0.502719L26.5721 0.32397L26.4534 -0.328979L25.8057 -0.473336L25.5882 0.502719ZM17.4488 0.299003L17.2809 -0.686801L16.5902 -0.569155L16.4649 0.120254L17.4488 0.299003ZM8.70529 4.39784L15.4373 9.05982L16.5759 7.4156L9.84394 2.75362L8.70529 4.39784ZM4.40486 9.83366C5.84773 7.69373 7.69373 5.84773 9.83366 4.40486L8.71556 2.7466C6.36254 4.33314 4.33314 6.36254 2.7466 8.71556L4.40486 9.83366ZM9.05982 15.4373L4.39784 8.70529L2.75362 9.84394L7.4156 16.5759L9.05982 15.4373ZM0.477751 18.4327L8.41646 16.9905L8.05896 15.0227L0.120254 16.4649L0.477751 18.4327ZM1 21C1 19.8461 1.09761 18.7158 1.28481 17.6167L-0.686801 17.2809C-0.892814 18.4905 -1 19.7331 -1 21H1ZM1.47877 25.3706C1.16546 23.9648 1 22.5023 1 21H-1C-1 22.6496 -0.818266 24.258 -0.473336 25.8057L1.47877 25.3706ZM8.41646 26.0095L0.681467 24.6043L0.32397 26.5721L8.05896 27.9773L8.41646 26.0095ZM4.74484 33.7936L9.05982 27.5627L7.4156 26.4241L3.10061 32.655L4.74484 33.7936ZM10.5463 38.054C8.26735 36.6539 6.29001 34.8095 4.73538 32.6416L3.11007 33.8071C4.81929 36.1906 6.99304 38.2183 9.49943 39.7581L10.5463 38.054ZM15.4373 33.9402L9.45356 38.084L10.5922 39.7282L16.5759 35.5844L15.4373 33.9402ZM18.2451 41.4894L16.9905 34.5835L15.0227 34.941L16.2773 41.8469L18.2451 41.4894ZM21 41C19.7835 41 18.5932 40.8915 17.4381 40.6839L17.0843 42.6524C18.3557 42.8809 19.6644 43 21 43V41ZM25.5511 40.4801C24.09 40.8201 22.5667 41 21 41V43C22.7203 43 24.3957 42.8024 26.0043 42.4281L25.5511 40.4801ZM26.0095 34.5835L24.7938 41.2754L26.7616 41.6329L27.9773 34.941L26.0095 34.5835ZM33.0682 37.7528L27.5627 33.9402L26.4241 35.5844L31.9295 39.397L33.0682 37.7528ZM37.7386 31.9506C36.2281 34.2546 34.2546 36.2281 31.9506 37.7386L33.0471 39.4112C35.5806 37.7502 37.7502 35.5806 39.4112 33.0471L37.7386 31.9506ZM33.9402 27.5627L37.7528 33.0682L39.397 31.9295L35.5844 26.4241L33.9402 27.5627ZM41.2754 24.7938L34.5835 26.0095L34.941 27.9773L41.6329 26.7616L41.2754 24.7938ZM41 21C41 22.5667 40.8201 24.09 40.4801 25.5511L42.4281 26.0043C42.8024 24.3957 43 22.7203 43 21H41ZM40.6839 17.4381C40.8915 18.5932 41 19.7835 41 21H43C43 19.6644 42.8809 18.3557 42.6524 17.0843L40.6839 17.4381ZM34.5835 16.9905L41.4894 18.2451L41.8469 16.2773L34.941 15.0227L34.5835 16.9905ZM38.084 9.45356L33.9402 15.4373L35.5844 16.5759L39.7282 10.5922L38.084 9.45356ZM32.6416 4.73538C34.8095 6.29001 36.6539 8.26735 38.054 10.5463L39.7581 9.49943C38.2183 6.99304 36.1906 4.81929 33.8071 3.11007L32.6416 4.73538ZM27.5627 9.05982L33.7936 4.74484L32.655 3.10061L26.4241 7.4156L27.5627 9.05982ZM24.6043 0.681467L26.0095 8.41646L27.9773 8.05896L26.5721 0.32397L24.6043 0.681467ZM21 1C22.5023 1 23.9648 1.16546 25.3706 1.47877L25.8057 -0.473336C24.258 -0.818266 22.6496 -1 21 -1V1ZM17.6167 1.28481C18.7158 1.09761 19.8461 1 21 1V-1C19.7331 -1 18.4905 -0.892814 17.2809 -0.686801L17.6167 1.28481ZM16.9905 8.41646L18.4327 0.477751L16.4649 0.120254L15.0227 8.05896L16.9905 8.41646ZM25 21C25 23.2091 23.2091 25 21 25V27C24.3137 27 27 24.3137 27 21H25ZM21 17C23.2091 17 25 18.7909 25 21H27C27 17.6863 24.3137 15 21 15V17ZM17 21C17 18.7909 18.7909 17 21 17V15C17.6863 15 15 17.6863 15 21H17ZM21 25C18.7909 25 17 23.2091 17 21H15C15 24.3137 17.6863 27 21 27V25Z" fill="#490A0A" mask="url(#path-1-inside-1_1_10)"/>
</svg>
